<svg width="309" height="310" viewBox="0 0 309 310" fill="none" xmlns="http://www.w3.org/2000/svg">
<path d="M265.761 256.189C238.819 285.969 200.157 304.957 156.908 305.729L154.961 305.751C118.991 305.937 85.8347 293.42 59.7804 272.359L78.1966 253.885C99.832 270.608 127.053 280.345 156.446 279.82C191.98 279.186 223.807 263.675 246.103 239.289L265.761 256.189ZM56.7856 76.5326C39.269 98.5108 28.9943 126.526 29.5368 156.9C30.0439 185.284 39.9194 211.271 56.1366 231.967L37.7271 250.435C17.3462 225.522 4.73096 193.926 3.67543 159.315L3.62788 157.363C2.96743 120.388 15.6065 86.2795 37.1251 59.6301L56.7856 76.5326ZM271.53 59.9419C291.798 85.1635 304.168 117.086 304.792 151.984L304.815 153.936C304.962 182.021 297.437 208.394 284.196 231.03L264.15 213.796C273.903 195.561 279.279 174.633 278.883 152.446C278.384 124.541 268.832 98.9525 253.1 78.4302L271.53 59.9419ZM153.458 3.59431C189.904 3.40647 223.46 16.2592 249.668 37.8269L231.271 56.2804C209.47 39.057 181.844 28.9919 151.975 29.5253C124.604 30.0142 99.4322 39.3288 79.1214 54.7269L59.0978 37.5125C84.3409 16.8633 116.417 4.24324 151.512 3.61638L153.458 3.59431Z" fill="black"/>
<path d="M265.761 256.189C238.819 285.969 200.157 304.957 156.908 305.729L154.961 305.751C118.991 305.937 85.8347 293.42 59.7804 272.359L78.1966 253.885C99.832 270.608 127.053 280.345 156.446 279.82C191.98 279.186 223.807 263.675 246.103 239.289L265.761 256.189ZM56.7856 76.5326C39.269 98.5108 28.9943 126.526 29.5368 156.9C30.0439 185.284 39.9194 211.271 56.1366 231.967L37.7271 250.435C17.3462 225.522 4.73096 193.926 3.67543 159.315L3.62788 157.363C2.96743 120.388 15.6065 86.2795 37.1251 59.6301L56.7856 76.5326ZM271.53 59.9419C291.798 85.1635 304.168 117.086 304.792 151.984L304.815 153.936C304.962 182.021 297.437 208.394 284.196 231.03L264.15 213.796C273.903 195.561 279.279 174.633 278.883 152.446C278.384 124.541 268.832 98.9525 253.1 78.4302L271.53 59.9419ZM153.458 3.59431C189.904 3.40647 223.46 16.2592 249.668 37.8269L231.271 56.2804C209.47 39.057 181.844 28.9919 151.975 29.5253C124.604 30.0142 99.4322 39.3288 79.1214 54.7269L59.0978 37.5125C84.3409 16.8633 116.417 4.24324 151.512 3.61638L153.458 3.59431Z" fill="#3C2A65"/>
<path d="M215.393 226.563L189.735 226.405L190.165 142.579L186.68 146.115L186.655 146.09L185.056 147.762L108.105 225.866L110.417 225.89L110.393 225.917L75.6013 225.704L216.261 85.0425L215.393 226.563ZM107.09 82.4029L160.378 118.253L142.048 136.584L73.5701 82.1968L107.09 82.4029Z" fill="#3C2A65"/>
</svg>
