<svg width="212" height="213" viewBox="0 0 212 213" fill="none" xmlns="http://www.w3.org/2000/svg">
<path d="M182.313 175.746C163.831 196.176 137.308 209.202 107.64 209.732L106.305 209.747C81.629 209.874 58.8836 201.287 41.0101 186.839L53.6432 174.166C68.4851 185.638 87.1588 192.318 107.322 191.957C131.699 191.522 153.532 180.882 168.828 164.153L182.313 175.746ZM38.9554 52.5019C26.939 67.5789 19.8901 86.7969 20.2622 107.634C20.61 127.105 27.385 144.932 38.51 159.13L25.8807 171.799C11.8994 154.709 3.24546 133.034 2.52137 109.291L2.48865 107.951C2.0357 82.5863 10.7061 59.1884 25.4678 40.9069L38.9554 52.5019ZM186.271 41.1201C200.174 58.4222 208.661 80.3213 209.089 104.261L209.105 105.601C209.205 124.867 204.043 142.959 194.96 158.488L181.209 146.665C187.899 134.155 191.587 119.798 191.315 104.578C190.973 85.4355 184.42 67.8822 173.628 53.804L186.271 41.1201ZM105.273 2.46578C130.274 2.33689 153.295 11.1535 171.274 25.949L158.653 38.609C143.698 26.7936 124.745 19.8884 104.255 20.2544C85.4789 20.5898 68.2108 26.9801 54.2776 37.5432L40.542 25.7339C57.8587 11.5686 79.8626 2.91097 103.938 2.48084L105.273 2.46578Z" fill="black"/>
<path d="M182.313 175.746C163.831 196.176 137.308 209.202 107.64 209.732L106.305 209.747C81.629 209.874 58.8836 201.287 41.0101 186.839L53.6432 174.166C68.4851 185.638 87.1588 192.318 107.322 191.957C131.699 191.522 153.532 180.882 168.828 164.153L182.313 175.746ZM38.9554 52.5019C26.939 67.5789 19.8901 86.7969 20.2622 107.634C20.61 127.105 27.385 144.932 38.51 159.13L25.8807 171.799C11.8994 154.709 3.24546 133.034 2.52137 109.291L2.48865 107.951C2.0357 82.5863 10.7061 59.1884 25.4678 40.9069L38.9554 52.5019ZM186.271 41.1201C200.174 58.4222 208.661 80.3213 209.089 104.261L209.105 105.601C209.205 124.867 204.043 142.959 194.96 158.488L181.209 146.665C187.899 134.155 191.587 119.798 191.315 104.578C190.973 85.4355 184.42 67.8822 173.628 53.804L186.271 41.1201ZM105.273 2.46578C130.274 2.33689 153.295 11.1535 171.274 25.949L158.653 38.609C143.698 26.7936 124.745 19.8884 104.255 20.2544C85.4789 20.5898 68.2108 26.9801 54.2776 37.5432L40.542 25.7339C57.8587 11.5686 79.8626 2.91097 103.938 2.48084L105.273 2.46578Z" fill="white"/>
<path d="M147.76 155.424L130.159 155.315L130.454 97.8093L128.064 100.235L128.047 100.218L126.95 101.366L74.1609 154.945L75.7468 154.962L75.7302 154.98L51.863 154.834L148.356 58.3395L147.76 155.424ZM73.4646 56.529L110.02 81.1218L97.446 93.697L50.4695 56.3874L73.4646 56.529Z" fill="white"/>
</svg>
